<svg width="100" height="100" xmlns="http://www.w3.org/2000/svg">

 <g>
  <title>background</title>
  <rect fill="none" id="canvas_background" height="102" width="102" y="-1" x="-1"/>
 </g>
 <g>
  <title>Layer 1</title>
  <path fill="#ffffff" id="svg_11" d="m34.01,92.98l-22.18,0c-2.65,0 -4.81,-2.16 -4.81,-4.81l0,-22.18c0,-1.1 0.9,-2 2,-2s2,0.9 2,2l0,22.18c0,0.45 0.36,0.81 0.81,0.81l22.18,0c1.1,0 2,0.9 2,2s-0.89,2 -2,2z"/>
  <path fill="#ffffff" id="svg_20" d="m88.17,92.98l-22.18,0c-1.1,0 -2,-0.9 -2,-2s0.9,-2 2,-2l22.18,0c0.45,0 0.81,-0.36 0.81,-0.81l0,-22.18c0,-1.1 0.9,-2 2,-2s2,0.9 2,2l0,22.18c0,2.65 -2.16,4.81 -4.81,4.81z"/>
  <path fill="#ffffff" id="svg_29" d="m90.98,36.01c-1.1,0 -2,-0.9 -2,-2l0,-22.18c0,-0.45 -0.36,-0.81 -0.81,-0.81l-22.18,0c-1.1,0 -2,-0.9 -2,-2s0.9,-2 2,-2l22.18,0c2.65,0 4.81,2.16 4.81,4.81l0,22.18c0,1.11 -0.9,2 -2,2z"/>
  <path fill="#ffffff" id="svg_38" d="m9.02,36.01c-1.1,0 -2,-0.9 -2,-2l0,-22.18c0,-2.65 2.16,-4.81 4.81,-4.81l22.18,0c1.1,0 2,0.9 2,2s-0.9,2 -2,2l-22.18,0c-0.45,0 -0.81,0.36 -0.81,0.81l0,22.18c0,1.11 -0.89,2 -2,2z"/>
 </g>
</svg>