<svg width="60" height="60" xmlns="http://www.w3.org/2000/svg">

 <g>
  <title>background</title>
  <rect fill="none" id="canvas_background" height="402" width="582" y="-1" x="-1"/>
 </g>
 <g>
  <title>Layer 1</title>
  <path fill="#7185ea" id="svg_2" d="m51.449,48.952l-42.111,0c-2.048,0 -3.714,-1.666 -3.714,-3.714l0,-28.654c0,-2.048 1.667,-3.714 3.714,-3.714l42.111,0c2.048,0 3.713,1.666 3.713,3.714l0,28.654c0,2.048 -1.665,3.714 -3.713,3.714zm-42.111,-33.882c-0.835,0 -1.514,0.679 -1.514,1.514l0,28.654c0,0.835 0.679,1.515 1.514,1.515l42.111,0c0.834,0 1.514,-0.68 1.514,-1.515l0,-28.654c0,-0.834 -0.68,-1.514 -1.514,-1.514l-42.111,0z"/>
  <rect fill="#7185ea" id="svg_4" y="19.72" x="12.093" width="2.2" height="22.381"/>
  <rect fill="#7185ea" id="svg_6" y="19.72" x="16.818" width="2.2" height="22.381"/>
  <rect fill="#7185ea" id="svg_8" y="19.72" x="21.465" width="2.2" height="22.381"/>
  <rect fill="#7185ea" id="svg_10" y="19.72" x="25.836979" width="2.2" height="22.381"/>
  <rect fill="#7185ea" id="svg_12" y="19.72" x="29.896207" width="2.199" height="22.381"/>
  <rect fill="#7185ea" id="svg_14" y="19.72" x="33.735" width="2.199" height="22.381"/>
  <rect fill="#7185ea" id="svg_16" y="19.72" x="38.074" width="2.199" height="22.381"/>
  <rect fill="#7185ea" id="svg_18" y="19.72" x="43.208" width="2.199" height="22.381"/>
  <rect fill="#7185ea" id="svg_20" y="19.72" x="47.213" width="2.199" height="22.381"/>
 </g>
</svg>